<svg width="24" height="25" viewBox="0 0 24 25" fill="none" xmlns="http://www.w3.org/2000/svg">
<path d="M14.1263 3.34375H16.9516C17.5589 3.34375 18.1373 3.60675 18.5408 4.06642L21.4629 7.39524C22.141 8.16777 22.1814 9.31925 21.559 10.1385L13.6854 20.5034C12.8342 21.6239 11.1658 21.6239 10.3146 20.5034L2.44095 10.1385C1.81861 9.31925 1.85896 8.16777 2.53709 7.39524L5.45918 4.06642C5.86269 3.60675 6.44106 3.34375 7.04842 3.34375H10.1099M14.1263 3.34375L16.2526 8.7266M14.1263 3.34375H10.1099M16.2526 8.7266H21.5684M16.2526 8.7266L12 21.1072L7.74736 8.7266M16.2526 8.7266H7.74736M10.1099 3.34375L7.74736 8.7266M2.43156 8.7266H7.74736" stroke="white" stroke-width="1.5" stroke-linecap="round" stroke-linejoin="round"/>
</svg>
