<svg width="280" height="23" viewBox="0 0 280 23" fill="none" xmlns="http://www.w3.org/2000/svg">
<path d="M183.366 22.4085C182.607 22.4085 181.991 21.7664 181.991 20.9744V1.9302C181.991 1.13817 182.607 0.496094 183.366 0.496094H197.959C203.601 0.496094 206.543 3.62645 206.543 8.38458C206.543 13.1427 203.601 16.273 197.959 16.273H191.14C190.38 16.273 189.765 16.9151 189.765 17.7071V20.9744C189.765 21.7664 189.149 22.4085 188.39 22.4085H183.366ZM189.765 9.61126C189.765 10.4033 190.38 11.0454 191.14 11.0454H196.068C197.749 11.0454 198.529 10.1063 198.529 8.6976C198.529 7.10113 197.538 6.34985 196.068 6.34985H191.14C190.38 6.34985 189.765 6.99192 189.765 7.78396V9.61126Z" fill="white"/>
<path d="M217.366 15.0268C217.366 15.8188 217.981 16.4609 218.741 16.4609H226.525C227.285 16.4609 227.9 17.1029 227.9 17.895V20.9744C227.9 21.7664 227.285 22.4085 226.525 22.4085H210.967C210.208 22.4085 209.592 21.7664 209.592 20.9744V1.9302C209.592 1.13817 210.208 0.496094 210.967 0.496094H215.991C216.75 0.496094 217.366 1.13817 217.366 1.9302V15.0268Z" fill="white"/>
<path d="M249.799 22.4085C249.205 22.4085 248.679 22.0113 248.493 21.4233L248.245 20.6391C248.059 20.0511 247.533 19.6538 246.939 19.6538H240.135C239.541 19.6538 239.014 20.0511 238.829 20.6391L238.581 21.4233C238.395 22.0113 237.868 22.4085 237.275 22.4085H231.857C230.903 22.4085 230.239 21.4204 230.565 20.4852L237.19 1.44103C237.388 0.873808 237.904 0.496094 238.483 0.496094H248.591C249.169 0.496094 249.686 0.873807 249.883 1.44103L256.509 20.4852C256.834 21.4204 256.17 22.4085 255.217 22.4085H249.799ZM241.376 12.4545C241.087 13.3812 241.75 14.3322 242.684 14.3322H244.383C245.319 14.3322 245.982 13.3772 245.689 12.4495L243.916 6.83443C243.86 6.65733 243.701 6.53767 243.522 6.53767C243.343 6.53767 243.184 6.65806 243.129 6.83592L241.376 12.4545Z" fill="white"/>
<path d="M272.128 1.13699C272.383 0.736704 272.813 0.496094 273.274 0.496094H278.623C279.748 0.496094 280.397 1.82874 279.733 2.77628L271.66 14.2986C271.488 14.5442 271.396 14.8405 271.396 15.1447V20.9744C271.396 21.7664 270.78 22.4085 270.021 22.4085H264.997C264.238 22.4085 263.622 21.7664 263.622 20.9744V15.147C263.622 14.8414 263.528 14.5438 263.355 14.2976L255.237 2.77961C254.569 1.83253 255.218 0.496094 256.345 0.496094H261.711C262.173 0.496094 262.605 0.738165 262.859 1.14044L267.083 7.81775C267.171 7.95665 267.32 8.04023 267.479 8.04023C267.638 8.04023 267.787 7.95716 267.875 7.81895L272.128 1.13699Z" fill="white"/>
<path d="M1.65004 22.4085C0.738747 22.4085 0 21.638 0 20.6876V2.21702C0 1.26658 0.738747 0.496094 1.65004 0.496094H15.9674C21.6101 0.496094 24.5514 3.62645 24.5514 8.38458C24.5514 13.1427 21.6101 16.273 15.9674 16.273H9.42366C8.51237 16.273 7.77362 17.0435 7.77362 17.994V20.6876C7.77362 21.638 7.03488 22.4085 6.12358 22.4085H1.65004ZM7.77362 9.32444C7.77362 10.2749 8.51237 11.0454 9.42366 11.0454H14.0766C15.7573 11.0454 16.5377 10.1063 16.5377 8.6976C16.5377 7.10113 15.5472 6.34985 14.0766 6.34985H9.42366C8.51237 6.34985 7.77362 7.12034 7.77362 8.07078V9.32444Z" fill="white"/>
<path d="M35.3744 14.7399C35.3744 15.6904 36.1131 16.4609 37.0244 16.4609H44.2592C45.1705 16.4609 45.9093 17.2313 45.9093 18.1818V20.6876C45.9093 21.638 45.1705 22.4085 44.2592 22.4085H29.2508C28.3395 22.4085 27.6008 21.638 27.6008 20.6876V2.21702C27.6008 1.26658 28.3395 0.496094 29.2508 0.496094H33.7243C34.6356 0.496094 35.3744 1.26658 35.3744 2.21702V14.7399Z" fill="white"/>
<path d="M68.0067 22.4085C67.2944 22.4085 66.6625 21.9318 66.4396 21.2262L66.3163 20.8361C66.0934 20.1305 65.4615 19.6538 64.7492 19.6538H58.3422C57.6299 19.6538 56.998 20.1305 56.7751 20.8361L56.6518 21.2262C56.4289 21.9318 55.797 22.4085 55.0847 22.4085H50.2584C49.1138 22.4085 48.3169 21.2228 48.7073 20.1006L55.1334 1.63002C55.3702 0.949349 55.9902 0.496094 56.6845 0.496094H66.4069C67.1012 0.496094 67.7212 0.94935 67.958 1.63002L74.3841 20.1006C74.7745 21.2228 73.9776 22.4085 72.833 22.4085H68.0067ZM59.5022 12.0789C59.1554 13.191 59.9501 14.3322 61.0713 14.3322H62.0114C63.1351 14.3322 63.9301 13.1862 63.5786 12.073L61.9245 6.83443C61.8686 6.65733 61.71 6.53767 61.5313 6.53767C61.352 6.53767 61.193 6.65806 61.1375 6.83592L59.5022 12.0789Z" fill="white"/>
<path d="M90.0554 1.26517C90.3611 0.784826 90.8772 0.496094 91.43 0.496094H96.0898C97.44 0.496094 98.2187 2.09527 97.4221 3.23232L89.7222 14.223C89.5157 14.5177 89.4044 14.8733 89.4044 15.2383V20.6876C89.4044 21.638 88.6656 22.4085 87.7544 22.4085H83.2808C82.3695 22.4085 81.6308 21.638 81.6308 20.6876V15.241C81.6308 14.8743 81.5185 14.5172 81.3102 14.2218L73.5675 3.23631C72.7664 2.09982 73.5445 0.496094 74.8969 0.496094H79.572C80.1265 0.496094 80.644 0.786579 80.9493 1.26931L85.0917 7.81775C85.1796 7.95665 85.3285 8.04023 85.488 8.04023C85.6471 8.04023 85.7956 7.95716 85.8835 7.81895L90.0554 1.26517Z" fill="white"/>
<path fill-rule="evenodd" clip-rule="evenodd" d="M112.582 0.382812C111.823 0.382812 111.207 1.02489 111.207 1.81692V20.9939C111.207 21.7859 111.823 22.428 112.582 22.428H166.405C167.164 22.428 167.78 21.7859 167.78 20.9939V1.81692C167.78 1.02488 167.164 0.382812 166.405 0.382812H112.582ZM125.903 18.0712L125.374 16.3964H120.028L119.498 18.0712H114.407L119.042 4.74888H126.36L130.995 18.0712H125.903ZM121.031 13.161H124.371L122.874 8.42204H122.509L121.031 13.161ZM143.248 4.74888H147.974V18.0712H142.5L137.883 11.4862H137.646V18.0712H132.92V4.74888H138.485L143.011 11.6575H143.248V4.74888ZM150.631 4.74888V18.0712H158.35C162.365 18.0712 165.211 15.6732 165.211 11.41C165.211 7.41334 162.657 4.74888 158.368 4.74888H150.631ZM157.2 14.4552H155.357V8.36494H157.219C159.08 8.36494 160.339 9.22138 160.339 11.41C160.339 13.2181 159.463 14.4552 157.2 14.4552Z" fill="#FFD700"/>
</svg>
