<svg width="280" height="22" viewBox="0 0 280 22" fill="none" xmlns="http://www.w3.org/2000/svg">
<path d="M183.366 21.3554C182.607 21.3554 181.991 20.7388 181.991 19.9782V1.6897C181.991 0.929094 182.607 0.3125 183.366 0.3125H197.959C203.601 0.3125 206.543 3.31864 206.543 7.88797C206.543 12.4573 203.601 15.4634 197.959 15.4634H191.14C190.38 15.4634 189.765 16.08 189.765 16.8406V19.9782C189.765 20.7388 189.149 21.3554 188.39 21.3554H183.366ZM189.765 9.06597C189.765 9.82658 190.38 10.4432 191.14 10.4432H196.068C197.749 10.4432 198.529 9.54133 198.529 8.18857C198.529 6.65544 197.538 5.93398 196.068 5.93398H191.14C190.38 5.93398 189.765 6.55057 189.765 7.31118V9.06597Z" fill="white"/>
<path d="M217.366 14.2666C217.366 15.0272 217.981 15.6438 218.741 15.6438H226.525C227.285 15.6438 227.9 16.2604 227.9 17.021V19.9782C227.9 20.7388 227.285 21.3554 226.525 21.3554H210.967C210.208 21.3554 209.592 20.7388 209.592 19.9782V1.6897C209.592 0.929094 210.208 0.3125 210.967 0.3125H215.991C216.75 0.3125 217.366 0.929094 217.366 1.6897V14.2666Z" fill="white"/>
<path d="M249.799 21.3554C249.205 21.3554 248.679 20.9739 248.493 20.4093L248.245 19.6562C248.059 19.0915 247.533 18.71 246.939 18.71H240.135C239.541 18.71 239.014 19.0915 238.829 19.6562L238.581 20.4093C238.395 20.9739 237.868 21.3554 237.275 21.3554H231.857C230.903 21.3554 230.239 20.4065 230.565 19.5085L237.19 1.21994C237.388 0.675227 237.904 0.3125 238.483 0.3125H248.591C249.169 0.3125 249.686 0.675226 249.883 1.21994L256.509 19.5085C256.834 20.4065 256.17 21.3554 255.217 21.3554H249.799ZM241.376 11.7964C241.087 12.6863 241.75 13.5996 242.684 13.5996H244.383C245.319 13.5996 245.982 12.6825 245.689 11.7916L243.916 6.39933C243.86 6.22926 243.701 6.11434 243.522 6.11434C243.343 6.11434 243.184 6.22996 243.129 6.40076L241.376 11.7964Z" fill="white"/>
<path d="M272.128 0.927967C272.383 0.543563 272.813 0.3125 273.274 0.3125H278.623C279.748 0.3125 280.397 1.59226 279.733 2.50221L271.66 13.5673C271.488 13.8032 271.396 14.0877 271.396 14.3798V19.9782C271.396 20.7388 270.78 21.3554 270.021 21.3554H264.997C264.238 21.3554 263.622 20.7388 263.622 19.9782V14.382C263.622 14.0886 263.528 13.8028 263.355 13.5663L255.237 2.5054C254.569 1.59591 255.218 0.3125 256.345 0.3125H261.711C262.173 0.3125 262.605 0.544966 262.859 0.93128L267.083 7.34364C267.171 7.47702 267.32 7.55729 267.479 7.55729C267.638 7.55729 267.787 7.47751 267.875 7.34478L272.128 0.927967Z" fill="white"/>
<path d="M1.65004 21.3554C0.738747 21.3554 0 20.6155 0 19.7028V1.96514C0 1.05241 0.738747 0.3125 1.65004 0.3125H15.9674C21.6101 0.3125 24.5514 3.31864 24.5514 7.88797C24.5514 12.4573 21.6101 15.4634 15.9674 15.4634H9.42366C8.51237 15.4634 7.77362 16.2033 7.77362 17.1161V19.7028C7.77362 20.6155 7.03488 21.3554 6.12358 21.3554H1.65004ZM7.77362 8.79053C7.77362 9.70326 8.51237 10.4432 9.42366 10.4432H14.0766C15.7573 10.4432 16.5377 9.54133 16.5377 8.18857C16.5377 6.65544 15.5472 5.93398 14.0766 5.93398H9.42366C8.51237 5.93398 7.77362 6.67389 7.77362 7.58662V8.79053Z" fill="white"/>
<path d="M35.3744 13.9911C35.3744 14.9039 36.1131 15.6438 37.0244 15.6438H44.2592C45.1705 15.6438 45.9093 16.3837 45.9093 17.2964V19.7028C45.9093 20.6155 45.1705 21.3554 44.2592 21.3554H29.2508C28.3395 21.3554 27.6008 20.6155 27.6008 19.7028V1.96514C27.6008 1.05241 28.3395 0.3125 29.2508 0.3125H33.7243C34.6356 0.3125 35.3744 1.05241 35.3744 1.96514V13.9911Z" fill="white"/>
<path d="M68.0067 21.3554C67.2944 21.3554 66.6625 20.8976 66.4396 20.2201L66.3163 19.8454C66.0934 19.1678 65.4615 18.71 64.7492 18.71H58.3422C57.6299 18.71 56.998 19.1678 56.7751 19.8454L56.6518 20.2201C56.4289 20.8976 55.797 21.3554 55.0847 21.3554H50.2584C49.1138 21.3554 48.3169 20.2167 48.7073 19.1391L55.1334 1.40143C55.3702 0.74777 55.9902 0.3125 56.6845 0.3125H66.4069C67.1012 0.3125 67.7212 0.747771 67.958 1.40143L74.3841 19.1391C74.7745 20.2167 73.9776 21.3554 72.833 21.3554H68.0067ZM59.5022 11.4357C59.1554 12.5036 59.9501 13.5996 61.0713 13.5996H62.0114C63.1351 13.5996 63.9301 12.4991 63.5786 11.43L61.9245 6.39933C61.8686 6.22926 61.71 6.11434 61.5313 6.11434C61.352 6.11434 61.193 6.22996 61.1375 6.40076L59.5022 11.4357Z" fill="white"/>
<path d="M90.0554 1.05106C90.3611 0.589775 90.8772 0.3125 91.43 0.3125H96.0898C97.44 0.3125 98.2187 1.84822 97.4221 2.94015L89.7222 13.4947C89.5157 13.7778 89.4044 14.1192 89.4044 14.4697V19.7028C89.4044 20.6155 88.6656 21.3554 87.7544 21.3554H83.2808C82.3695 21.3554 81.6308 20.6155 81.6308 19.7028V14.4724C81.6308 14.1202 81.5185 13.7773 81.3102 13.4935L73.5675 2.94398C72.7664 1.85259 73.5445 0.3125 74.8969 0.3125H79.572C80.1265 0.3125 80.644 0.591459 80.9493 1.05504L85.0917 7.34364C85.1796 7.47702 85.3285 7.55729 85.488 7.55729C85.6471 7.55729 85.7956 7.47751 85.8835 7.34478L90.0554 1.05106Z" fill="white"/>
<path fill-rule="evenodd" clip-rule="evenodd" d="M112.582 0.203125C111.823 0.203125 111.207 0.819721 111.207 1.58033V19.9963C111.207 20.7569 111.823 21.3735 112.582 21.3735H166.405C167.164 21.3735 167.78 20.7569 167.78 19.9963V1.58033C167.78 0.819719 167.164 0.203125 166.405 0.203125H112.582ZM125.903 17.1897L125.374 15.5813H120.028L119.498 17.1897H114.407L119.042 4.39595H126.36L130.995 17.1897H125.903ZM121.031 12.4743H124.371L122.874 7.92335H122.509L121.031 12.4743ZM143.248 4.39595H147.974V17.1897H142.5L137.883 10.8659H137.646V17.1897H132.92V4.39595H138.485L143.011 11.0304H143.248V4.39595ZM150.631 4.39595V17.1897H158.35C162.365 17.1897 165.211 14.8868 165.211 10.7928C165.211 6.95468 162.657 4.39595 158.368 4.39595H150.631ZM157.2 13.7171H155.357V7.86852H157.219C159.08 7.86852 160.339 8.69097 160.339 10.7928C160.339 12.5291 159.463 13.7171 157.2 13.7171Z" fill="#00D1FF"/>
</svg>
