<svg width="280" height="23" viewBox="0 0 280 23" fill="none" xmlns="http://www.w3.org/2000/svg">
<path d="M183.366 22.5865C182.607 22.5865 181.991 21.9281 181.991 21.1159V1.58705C181.991 0.774865 182.607 0.116455 183.366 0.116455H197.959C203.601 0.116455 206.543 3.32647 206.543 8.20567C206.543 13.0849 203.601 16.2949 197.959 16.2949H191.14C190.38 16.2949 189.765 16.9533 189.765 17.7655V21.1159C189.765 21.9281 189.149 22.5865 188.39 22.5865H183.366ZM189.765 9.46356C189.765 10.2758 190.38 10.9342 191.14 10.9342H196.068C197.749 10.9342 198.529 9.97116 198.529 8.52666C198.529 6.88956 197.538 6.11917 196.068 6.11917H191.14C190.38 6.11917 189.765 6.77758 189.765 7.58977V9.46356Z" fill="white"/>
<path d="M217.366 15.0169C217.366 15.8291 217.981 16.4875 218.741 16.4875H226.525C227.285 16.4875 227.9 17.1459 227.9 17.9581V21.1159C227.9 21.9281 227.285 22.5865 226.525 22.5865H210.967C210.208 22.5865 209.592 21.9281 209.592 21.1159V1.58705C209.592 0.774865 210.208 0.116455 210.967 0.116455H215.991C216.75 0.116455 217.366 0.774865 217.366 1.58705V15.0169Z" fill="white"/>
<path d="M249.799 22.5865C249.205 22.5865 248.679 22.1791 248.493 21.5761L248.245 20.772C248.059 20.169 247.533 19.7617 246.939 19.7617H240.135C239.541 19.7617 239.014 20.169 238.829 20.772L238.581 21.5761C238.395 22.1791 237.868 22.5865 237.275 22.5865H231.857C230.903 22.5865 230.239 21.5732 230.565 20.6143L237.19 1.08544C237.388 0.503781 237.904 0.116455 238.483 0.116455H248.591C249.169 0.116455 249.686 0.50378 249.883 1.08544L256.509 20.6143C256.834 21.5732 256.17 22.5865 255.217 22.5865H249.799ZM241.376 12.3791C241.087 13.3294 241.75 14.3047 242.684 14.3047H244.383C245.319 14.3047 245.982 13.3253 245.689 12.3741L243.916 6.61608C243.86 6.43448 243.701 6.31176 243.522 6.31176C243.343 6.31176 243.184 6.43522 243.129 6.6176L241.376 12.3791Z" fill="white"/>
<path d="M272.128 0.773662C272.383 0.363188 272.813 0.116455 273.274 0.116455H278.623C279.748 0.116455 280.397 1.48301 279.733 2.45467L271.66 14.2702C271.488 14.522 271.396 14.8259 271.396 15.1378V21.1159C271.396 21.9281 270.78 22.5865 270.021 22.5865H264.997C264.238 22.5865 263.622 21.9281 263.622 21.1159V15.1401C263.622 14.8268 263.528 14.5216 263.355 14.2691L255.237 2.45808C254.569 1.4869 255.218 0.116455 256.345 0.116455H261.711C262.173 0.116455 262.605 0.364686 262.859 0.7772L267.083 7.62442C267.171 7.76686 267.32 7.85257 267.479 7.85257C267.638 7.85257 267.787 7.76737 267.875 7.62565L272.128 0.773662Z" fill="white"/>
<path d="M1.65004 22.5865C0.738747 22.5865 0 21.7964 0 20.8217V1.88117C0 0.906547 0.738747 0.116455 1.65004 0.116455H15.9674C21.6101 0.116455 24.5514 3.32647 24.5514 8.20567C24.5514 13.0849 21.6101 16.2949 15.9674 16.2949H9.42366C8.51237 16.2949 7.77362 17.085 7.77362 18.0596V20.8218C7.77362 21.7964 7.03488 22.5865 6.12358 22.5865H1.65004ZM7.77362 9.16944C7.77362 10.1441 8.51237 10.9342 9.42366 10.9342H14.0766C15.7573 10.9342 16.5377 9.97116 16.5377 8.52666C16.5377 6.88956 15.5472 6.11917 14.0766 6.11917H9.42366C8.51237 6.11917 7.77362 6.90926 7.77362 7.88389V9.16944Z" fill="white"/>
<path d="M35.3744 14.7227C35.3744 15.6974 36.1131 16.4875 37.0244 16.4875H44.2592C45.1705 16.4875 45.9093 17.2776 45.9093 18.2522V20.8217C45.9093 21.7964 45.1705 22.5865 44.2592 22.5865H29.2508C28.3395 22.5865 27.6008 21.7964 27.6008 20.8217V1.88117C27.6008 0.906547 28.3395 0.116455 29.2508 0.116455H33.7243C34.6356 0.116455 35.3744 0.906547 35.3744 1.88117V14.7227Z" fill="white"/>
<path d="M68.0067 22.5865C67.2944 22.5865 66.6625 22.0976 66.4396 21.3741L66.3163 20.9741C66.0934 20.2505 65.4615 19.7617 64.7492 19.7617H58.3422C57.6299 19.7617 56.998 20.2505 56.7751 20.9741L56.6518 21.3741C56.4289 22.0976 55.797 22.5865 55.0847 22.5865H50.2584C49.1138 22.5865 48.3169 21.3705 48.7073 20.2198L55.1334 1.27924C55.3702 0.581244 55.9902 0.116455 56.6845 0.116455H66.4069C67.1012 0.116455 67.7212 0.581245 67.958 1.27924L74.3841 20.2198C74.7745 21.3705 73.9776 22.5865 72.833 22.5865H68.0067ZM59.5022 11.994C59.1554 13.1344 59.9501 14.3047 61.0713 14.3047H62.0114C63.1351 14.3047 63.9301 13.1295 63.5786 11.9879L61.9245 6.61608C61.8686 6.43448 61.71 6.31176 61.5313 6.31176C61.352 6.31176 61.193 6.43522 61.1375 6.6176L59.5022 11.994Z" fill="white"/>
<path d="M90.0554 0.905103C90.3611 0.412534 90.8772 0.116455 91.43 0.116455H96.0898C97.44 0.116455 98.2187 1.75632 97.4221 2.92231L89.7222 14.1927C89.5157 14.4949 89.4044 14.8595 89.4044 15.2338V20.8217C89.4044 21.7964 88.6656 22.5865 87.7544 22.5865H83.2808C82.3695 22.5865 81.6308 21.7964 81.6308 20.8217V15.2366C81.6308 14.8606 81.5185 14.4944 81.3102 14.1914L73.5675 2.9264C72.7664 1.76099 73.5445 0.116455 74.8969 0.116455H79.572C80.1265 0.116455 80.644 0.414332 80.9493 0.909349L85.0917 7.62442C85.1796 7.76686 85.3285 7.85257 85.488 7.85257C85.6471 7.85257 85.7956 7.76737 85.8835 7.62565L90.0554 0.905103Z" fill="white"/>
<path fill-rule="evenodd" clip-rule="evenodd" d="M112.582 0C111.823 0 111.207 0.658412 111.207 1.4706V21.1355C111.207 21.9477 111.823 22.6061 112.582 22.6061H166.405C167.164 22.6061 167.78 21.9477 167.78 21.1355V1.4706C167.78 0.65841 167.164 0 166.405 0H112.582ZM125.903 18.1385L125.374 16.4211H120.028L119.498 18.1385H114.407L119.042 4.47717H126.36L130.995 18.1385H125.903ZM121.031 13.1033H124.371L122.874 8.24379H122.509L121.031 13.1033ZM143.248 4.47717H147.974V18.1385H142.5L137.883 11.3859H137.646V18.1385H132.92V4.47717H138.485L143.011 11.5616H143.248V4.47717ZM150.631 4.47717V18.1385H158.35C162.365 18.1385 165.211 15.6795 165.211 11.3078C165.211 7.20943 162.657 4.47717 158.368 4.47717H150.631ZM157.2 14.4304H155.357V8.18525H157.219C159.08 8.18525 160.339 9.06347 160.339 11.3078C160.339 13.1619 159.463 14.4304 157.2 14.4304Z" fill="#00F780"/>
</svg>
