<svg width="24" height="25" viewBox="0 0 24 25" fill="none" xmlns="http://www.w3.org/2000/svg">
<path d="M5.31328 13.0383L4.56806 12.9537L4.56806 12.9537L5.31328 13.0383ZM5.76046 9.09823L6.50568 9.18281L5.76046 9.09823ZM4.44779 14.9952L3.87668 14.509H3.87668L4.44779 14.9952ZM19.4319 12.9537C19.3852 12.5422 19.0137 12.2464 18.6021 12.2931C18.1906 12.3398 17.8948 12.7113 17.9415 13.1229L19.4319 12.9537ZM19.5522 14.9952L18.9811 15.4813L19.5522 14.9952ZM9.73005 4.49671L9.973 5.20627C10.2763 5.10243 10.4801 4.81729 10.4801 4.49671H9.73005ZM13.1539 3.40364C13.4237 3.71791 13.8973 3.75394 14.2115 3.48412C14.5258 3.2143 14.5618 2.74079 14.292 2.42652L13.1539 3.40364ZM15.7023 20.3863C15.8477 19.9984 15.6511 19.5661 15.2632 19.4207C14.8753 19.2754 14.4431 19.472 14.2977 19.8598L15.7023 20.3863ZM9.7023 19.8598C9.55694 19.472 9.12467 19.2754 8.7368 19.4207C8.34893 19.5661 8.15234 19.9984 8.2977 20.3863L9.7023 19.8598ZM20.25 7.12305C20.25 8.36569 19.2426 9.37305 18 9.37305V10.873C20.0711 10.873 21.75 9.19411 21.75 7.12305H20.25ZM18 9.37305C16.7574 9.37305 15.75 8.36569 15.75 7.12305H14.25C14.25 9.19411 15.9289 10.873 18 10.873V9.37305ZM15.75 7.12305C15.75 5.88041 16.7574 4.87305 18 4.87305V3.37305C15.9289 3.37305 14.25 5.05198 14.25 7.12305H15.75ZM18 4.87305C19.2426 4.87305 20.25 5.88041 20.25 7.12305H21.75C21.75 5.05198 20.0711 3.37305 18 3.37305V4.87305ZM17.7772 17.373H6.22281V18.873H17.7772V17.373ZM6.05849 13.1229L6.50568 9.18281L5.01525 9.01365L4.56806 12.9537L6.05849 13.1229ZM5.01889 15.4813C5.59621 14.8031 5.96028 13.9882 6.05849 13.1229L4.56806 12.9537C4.50519 13.5077 4.27067 14.0462 3.87668 14.509L5.01889 15.4813ZM17.9415 13.1229C18.0397 13.9882 18.4038 14.8031 18.9811 15.4813L20.1233 14.509C19.7293 14.0462 19.4948 13.5077 19.4319 12.9537L17.9415 13.1229ZM6.22281 17.373C5.56777 17.373 5.10443 17.0491 4.89056 16.6722C4.68409 16.3084 4.68714 15.8711 5.01889 15.4813L3.87668 14.509C3.11141 15.408 3.08777 16.5346 3.58598 17.4126C4.07679 18.2774 5.04947 18.873 6.22281 18.873V17.373ZM17.7772 18.873C18.9505 18.873 19.9232 18.2774 20.414 17.4126C20.9122 16.5346 20.8886 15.408 20.1233 14.509L18.9811 15.4813C19.3129 15.8711 19.3159 16.3084 19.1094 16.6722C18.8956 17.0491 18.4322 17.373 17.7772 17.373V18.873ZM10.4801 4.49671V4.39299H8.98005V4.49671H10.4801ZM6.50568 9.18281C6.7087 7.39406 8.05587 5.86267 9.973 5.20627L9.48711 3.78715C7.11944 4.59781 5.29449 6.55331 5.01525 9.01365L6.50568 9.18281ZM12 1.37305C10.3321 1.37305 8.98005 2.72512 8.98005 4.39299H10.4801C10.4801 3.55355 11.1606 2.87305 12 2.87305V1.37305ZM12 2.87305C12.4613 2.87305 12.874 3.07763 13.1539 3.40364L14.292 2.42652C13.7393 1.78276 12.9171 1.37305 12 1.37305V2.87305ZM14.2977 19.8598C13.975 20.7209 13.0846 21.373 12 21.373V22.873C13.6855 22.873 15.1516 21.8555 15.7023 20.3863L14.2977 19.8598ZM12 21.373C10.9154 21.373 10.025 20.7209 9.7023 19.8598L8.2977 20.3863C8.84835 21.8555 10.3145 22.873 12 22.873V21.373Z" fill="white"/>
</svg>
