<svg width="24" height="25" viewBox="0 0 24 25" fill="none" xmlns="http://www.w3.org/2000/svg">
<path fill-rule="evenodd" clip-rule="evenodd" d="M18.25 10.6152C18.25 14.8954 14.7802 18.3652 10.5 18.3652C6.21979 18.3652 2.75 14.8954 2.75 10.6152C2.75 6.33503 6.21979 2.86523 10.5 2.86523C14.7802 2.86523 18.25 6.33503 18.25 10.6152ZM10.5 19.8652C15.6086 19.8652 19.75 15.7239 19.75 10.6152C19.75 5.5066 15.6086 1.36523 10.5 1.36523C5.39137 1.36523 1.25 5.5066 1.25 10.6152C1.25 15.7239 5.39137 19.8652 10.5 19.8652ZM21.4217 21.5369C20.6506 22.308 19.4004 22.308 18.6293 21.5369L16.7563 19.664C17.8465 18.9088 18.7936 17.9617 19.5488 16.8716L21.4217 18.7445C22.1928 19.5156 22.1928 20.7658 21.4217 21.5369Z" fill="white"/>
</svg>
